<?xml version="1.0" standalone="no"?>
<!DOCTYPE svg PUBLIC "-//W3C//DTD SVG 20010904//EN"
 "http://www.w3.org/TR/2001/REC-SVG-20010904/DTD/svg10.dtd">
<svg version="1.0" xmlns="http://www.w3.org/2000/svg"
 width="626.000000pt" height="626.000000pt" viewBox="0 0 626.000000 626.000000"
 preserveAspectRatio="xMidYMid meet">

<g transform="translate(0.000000,626.000000) scale(0.100000,-0.100000)"
fill="#000000" stroke="none">
<path d="M231 5650 c-1 -98 58 -288 136 -443 124 -243 291 -429 525 -584 286
-188 676 -308 1076 -330 61 -3 112 -10 112 -15 0 -14 -323 -9 -442 8 -253 35
-551 130 -791 251 -222 112 -384 230 -529 381 -72 76 -77 79 -71 49 20 -111
136 -306 250 -424 210 -215 485 -342 837 -389 95 -13 170 -15 350 -10 126 3
227 3 224 1 -14 -15 -266 -47 -403 -52 -487 -16 -933 138 -1242 430 l-83 79
29 -69 c129 -312 400 -521 774 -597 268 -55 602 -33 869 58 54 18 95 29 91 23
-11 -18 -196 -99 -314 -138 -174 -57 -309 -80 -494 -86 -284 -9 -503 44 -717
175 -38 22 -68 38 -68 36 0 -12 95 -127 151 -184 105 -105 235 -182 376 -222
67 -20 100 -23 233 -22 136 1 167 4 255 28 126 34 279 99 415 175 58 32 107
57 109 55 10 -9 -52 -61 -154 -129 -187 -125 -404 -218 -607 -262 -95 -20
-334 -23 -408 -5 l-45 10 55 -49 c62 -57 166 -111 255 -134 85 -22 241 -19
344 5 102 25 221 79 327 150 89 59 263 230 309 302 36 57 53 64 26 10 -47 -91
-260 -326 -383 -420 -163 -125 -319 -191 -478 -201 l-94 -6 59 -31 c126 -66
230 -83 351 -59 150 31 269 107 424 272 l92 98 -27 -55 c-45 -89 -103 -170
-183 -252 -89 -92 -176 -151 -268 -182 l-68 -23 55 -21 c163 -61 284 -29 424
112 90 90 140 175 187 316 l28 85 -5 -72 c-15 -205 -133 -400 -302 -499 -53
-31 -62 -39 -47 -45 60 -24 191 10 269 69 60 45 125 139 157 225 l23 62 3 -58
c5 -102 -41 -209 -131 -304 -47 -50 -49 -53 -25 -53 72 0 177 63 233 140 21
28 40 49 43 46 3 -3 -33 -61 -78 -128 -46 -68 -106 -169 -133 -226 -27 -56
-51 -102 -53 -102 -2 0 -13 5 -23 12 -23 14 -102 -19 -286 -119 -184 -101
-495 -301 -495 -318 0 -2 12 0 28 5 53 18 543 160 550 160 4 0 -51 -31 -123
-68 -258 -135 -374 -218 -685 -487 -134 -117 -285 -237 -383 -304 -42 -30 -77
-54 -77 -55 0 -10 215 19 295 39 306 76 629 274 958 585 48 46 89 81 91 79 2
-2 -52 -74 -120 -159 -215 -268 -317 -438 -383 -635 -53 -162 -85 -368 -79
-520 l3 -80 113 158 c215 301 389 585 538 877 67 134 95 182 100 177 2 -2 -8
-48 -23 -103 -24 -89 -27 -116 -27 -269 0 -156 3 -177 27 -258 48 -156 128
-294 239 -412 65 -70 156 -150 163 -144 2 3 -16 79 -40 171 -86 331 -122 611
-112 868 5 127 24 309 32 318 2 2 20 -14 40 -37 20 -22 45 -43 55 -46 12 -4
28 -36 50 -98 17 -51 56 -144 86 -207 85 -183 83 -219 -24 -365 -60 -83 -71
-126 -46 -181 l17 -39 7 41 c7 50 109 184 139 184 25 0 116 -123 129 -175 6
-22 16 -66 22 -98 6 -31 15 -55 20 -52 23 14 29 169 9 236 -7 21 -9 42 -6 46
13 12 86 -17 106 -43 10 -13 22 -43 26 -65 7 -38 8 -40 23 -25 18 17 20 63 7
151 -6 45 -5 52 19 74 l25 24 35 -27 c72 -55 119 -141 131 -239 7 -55 8 -57
26 -41 53 47 48 140 -12 258 -26 52 -37 82 -30 89 17 17 81 -3 121 -39 33 -30
39 -32 42 -17 7 31 -9 84 -33 109 -26 27 -93 49 -183 60 -67 8 -91 26 -126
100 -17 34 -23 73 -30 185 -4 77 -12 145 -17 150 -12 12 -165 -19 -175 -35
-13 -19 -9 -105 7 -143 9 -21 43 -74 76 -120 94 -129 109 -185 69 -263 -16
-31 -26 -40 -46 -40 -61 0 -137 58 -161 122 -19 54 -15 193 11 341 13 76 26
141 29 143 3 3 38 12 79 20 91 19 225 71 343 134 124 65 375 220 375 231 0 5
-35 26 -78 48 -82 42 -124 70 -105 71 6 0 63 -20 126 -45 163 -63 232 -78 352
-74 247 8 297 5 344 -20 58 -30 136 -105 168 -158 14 -24 26 -43 28 -43 6 0
-7 84 -21 142 -26 111 -103 228 -150 228 -18 0 -18 14 1 30 27 22 18 74 -25
138 -52 77 -123 137 -246 208 -128 74 -219 135 -324 219 -47 37 -148 110 -225
160 -77 51 -169 118 -205 149 -159 136 -311 349 -485 678 -91 173 -151 251
-255 327 -101 75 -216 134 -435 221 -372 149 -648 314 -900 539 -196 176 -364
404 -442 601 -12 32 -13 28 -9 -65 18 -406 342 -803 849 -1040 53 -25 101 -45
107 -45 5 0 10 -4 10 -10 0 -13 -163 47 -293 108 -501 236 -916 619 -1103
1017 l-33 70 0 -45z m3802 -3085 c23 -9 22 -26 -5 -72 l-22 -38 38 33 c43 37
66 31 66 -18 0 -30 -15 -40 -58 -40 -42 0 -62 26 -62 81 0 47 -2 49 -40 69
-22 11 -40 22 -40 25 0 3 76 -21 123 -40z"/>
<path d="M5974 5589 c-199 -385 -540 -713 -977 -939 -115 -60 -323 -150 -345
-150 -4 0 36 23 88 51 132 71 330 204 426 288 82 72 184 187 243 274 90 132
151 319 151 461 l0 80 -55 -110 c-135 -267 -365 -514 -675 -723 -203 -137
-363 -218 -655 -331 -235 -91 -440 -204 -516 -286 -20 -22 -57 -75 -83 -118
-107 -182 -245 -338 -404 -459 -35 -26 -62 -54 -60 -62 7 -32 385 -323 640
-492 156 -103 305 -189 313 -181 3 2 -4 26 -14 54 -28 72 -46 173 -34 185 7 7
18 -14 33 -62 13 -40 46 -106 73 -146 80 -121 174 -183 277 -183 74 0 93 13
52 34 -88 45 -184 187 -258 379 -52 134 -58 185 -9 73 51 -116 92 -182 167
-261 92 -97 166 -137 268 -143 60 -3 87 0 133 18 54 20 68 40 28 40 -10 0 -56
18 -101 41 -129 65 -258 205 -369 402 -18 31 -31 57 -28 57 2 0 29 -33 60 -72
184 -240 411 -364 606 -330 69 12 214 77 244 110 17 18 15 19 -70 25 -164 13
-289 57 -436 154 -125 82 -296 261 -407 423 -16 22 10 3 70 -54 275 -257 521
-378 770 -378 146 0 274 42 403 134 l47 35 -172 -1 c-200 0 -328 20 -500 80
-165 57 -390 185 -493 279 l-40 37 35 -22 c19 -12 94 -50 165 -86 393 -195
751 -213 1021 -53 74 43 204 166 259 244 74 105 74 108 -16 54 -182 -109 -409
-169 -642 -169 -170 0 -395 35 -560 86 -87 28 -250 94 -244 100 2 2 48 -8 103
-21 209 -54 333 -69 559 -69 182 0 224 3 315 22 368 81 602 294 698 639 l20
72 -83 -88 c-284 -298 -741 -457 -1260 -438 -139 5 -340 29 -353 42 -3 3 95 5
217 5 171 0 253 4 362 20 463 68 790 275 963 610 45 87 92 207 85 215 -3 2
-27 -24 -54 -57 -121 -150 -397 -338 -665 -454 -350 -150 -665 -220 -960 -212
-217 6 -238 23 -39 31 491 19 1014 230 1336 540 249 240 362 469 397 805 2 23
2 42 1 42 -2 0 -25 -41 -51 -91z"/>
</g>
</svg>
