<?xml version="1.0" standalone="no"?>
<!DOCTYPE svg PUBLIC "-//W3C//DTD SVG 20010904//EN"
 "http://www.w3.org/TR/2001/REC-SVG-20010904/DTD/svg10.dtd">
<svg version="1.0" xmlns="http://www.w3.org/2000/svg"
 width="233.000000pt" height="211.000000pt" viewBox="0 0 233.000000 211.000000"
 preserveAspectRatio="xMidYMid meet">

<g transform="translate(0.000000,211.000000) scale(0.100000,-0.100000)"
fill="#000000" stroke="none">
<path d="M457 1703 c-18 -18 -1 -50 56 -108 34 -34 81 -72 105 -84 57 -29 53
-35 -5 -9 -58 26 -82 40 -154 95 l-56 42 -13 -25 c-12 -22 -11 -27 16 -55 63
-66 174 -118 309 -145 l70 -14 -71 4 c-90 6 -208 45 -301 101 -39 23 -74 40
-77 37 -15 -14 -2 -43 34 -75 76 -70 180 -106 310 -109 l75 -1 -60 -6 c-130
-13 -265 17 -357 79 -37 25 -43 27 -47 12 -6 -31 92 -109 165 -132 77 -23 185
-26 261 -7 77 20 54 1 -30 -25 -106 -33 -232 -31 -310 5 -31 14 -57 22 -57 18
0 -18 79 -79 123 -96 69 -26 166 -17 252 24 87 40 65 12 -26 -33 -76 -38 -163
-60 -215 -54 -47 5 -43 -9 9 -32 85 -39 184 -18 269 58 41 37 48 41 31 17 -45
-63 -118 -114 -187 -131 -51 -11 -51 -12 -23 -23 61 -24 126 -7 190 49 20 18
37 29 37 25 0 -18 -58 -79 -98 -102 -43 -25 -44 -27 -21 -35 12 -5 35 -6 49
-3 32 7 95 69 110 109 6 16 13 26 16 23 11 -11 -35 -98 -68 -127 -25 -23 -28
-30 -15 -30 32 0 76 30 93 63 10 17 19 26 21 19 3 -6 -7 -32 -20 -57 -28 -50
-24 -56 18 -23 l28 22 -34 -62 c-19 -34 -41 -62 -49 -62 -30 -1 -216 -108
-206 -118 3 -2 28 3 55 12 77 25 80 19 13 -22 -52 -31 -160 -115 -262 -202
l-25 -21 47 5 c83 10 201 72 286 150 43 40 41 27 -7 -37 -54 -72 -80 -128 -97
-206 -16 -77 -18 -111 -5 -111 10 0 137 192 174 265 41 78 42 78 38 -11 -3
-75 0 -91 23 -137 14 -29 42 -68 62 -87 l37 -35 -7 35 c-35 171 -46 307 -27
353 6 18 7 18 23 0 9 -10 28 -48 43 -85 l26 -66 -20 -41 c-28 -54 -28 -87 0
-41 l21 34 24 -27 c13 -16 24 -37 24 -48 0 -12 4 -17 11 -14 6 4 7 19 4 36 -5
22 -3 29 9 29 8 0 20 -8 25 -17 9 -15 10 -13 11 14 0 17 4 34 9 38 13 7 51
-43 51 -67 0 -11 4 -16 11 -12 11 7 8 44 -6 78 -7 17 -5 18 19 12 24 -6 26 -5
17 13 -6 10 -26 22 -45 25 -45 9 -55 23 -63 85 -6 51 -6 52 -34 46 -48 -11
-33 1 32 25 34 12 88 38 121 57 l61 36 -24 19 -24 19 39 -16 c22 -8 69 -15
108 -15 72 0 119 -16 137 -47 10 -17 10 -17 11 0 0 25 -30 87 -42 87 -5 0 -6
4 -3 10 8 13 -13 50 -40 72 -12 9 -50 36 -86 60 -215 147 -238 169 -315 305
-47 84 -87 131 -127 151 -12 6 -70 33 -128 60 -123 57 -206 111 -269 176 -45
47 -52 51 -63 39z m969 -828 c15 -15 10 -40 -5 -30 -10 5 -22 45 -14 45 2 0
11 -7 19 -15z m-373 -262 c8 -16 22 -42 32 -59 21 -34 15 -64 -13 -64 -31 0
-42 22 -42 87 0 35 2 63 4 63 3 0 11 -12 19 -27z"/>
<path d="M1780 1668 c-65 -76 -169 -143 -315 -203 -109 -45 -150 -75 -195
-140 -23 -33 -62 -78 -87 -101 l-45 -40 63 -51 c71 -56 204 -143 219 -143 6 0
6 10 -1 26 -15 40 -2 41 14 2 16 -39 60 -78 88 -78 15 0 12 8 -17 51 -46 68
-43 78 7 24 42 -45 82 -62 121 -49 21 6 21 7 -8 21 -37 19 -70 50 -97 88 l-20
30 29 -26 c71 -65 139 -84 199 -57 35 16 31 24 -16 32 -57 9 -94 30 -156 89
-59 55 -73 87 -18 38 92 -81 217 -109 295 -66 l35 19 -67 7 c-77 8 -123 22
-188 55 -60 30 -101 62 -44 35 46 -22 150 -51 186 -51 58 0 130 32 175 76 25
25 43 47 41 49 -2 3 -22 -5 -44 -15 -91 -45 -238 -48 -349 -6 l-40 16 50 -8
c84 -12 227 -8 265 7 83 34 160 111 146 147 -4 12 -16 8 -56 -20 -27 -19 -71
-41 -97 -50 -70 -23 -189 -35 -258 -27 l-60 8 75 2 c100 2 194 25 258 64 63
38 105 87 91 108 -7 12 -12 12 -30 1 -66 -41 -152 -83 -209 -102 -74 -25 -200
-42 -214 -29 -6 5 4 9 24 9 52 0 159 29 225 62 62 30 165 103 165 116 0 4 -7
18 -16 31 l-16 23 -32 -30 c-36 -35 -124 -90 -181 -115 -22 -9 -32 -11 -21 -4
129 85 210 173 186 202 -17 20 -20 19 -60 -27z"/>
</g>
</svg>
